Coordinates
version=1
nRows=34
nColumns=38
inDegrees=no

Units are S.I. units (second, meters, Newtons, ...)
If the header above contains a line with 'inDegrees', this indicates whether rotational values are in degrees (yes) or radians (no).

endheader
time	pelvis_tilt	pelvis_list	pelvis_rotation	pelvis_tx	pelvis_ty	pelvis_tz	hip_flexion_r	hip_adduction_r	hip_rotation_r	knee_angle_r	ankle_angle_r	subtalar_angle_r	mtp_angle_r	hip_flexion_l	hip_adduction_l	hip_rotation_l	knee_angle_l	ankle_angle_l	subtalar_angle_l	mtp_angle_l	lumbar_extension	lumbar_bending	lumbar_rotation	arm_flex_r	arm_add_r	arm_rot_r	elbow_flex_r	pro_sup_r	wrist_flex_r	wrist_dev_r	arm_flex_l	arm_add_l	arm_rot_l	elbow_flex_l	pro_sup_l	wrist_flex_l	wrist_dev_l
65	1.43302	1.27522	-0.594436	-0.328514	1.55193	0.928851	-0.0910951	0.293172	-0.236867	0.134406	-0.445451	0	0	-0.0922832	-0.582495	-0.238335	1.18583	-0.560616	0	0	-0.195189	0.402704	-0.138368	-0.131169	-0.381872	0.0216183	0.834476	1.5708	0	0	0.199498	-0.156966	0.587348	0.396485	1.5708	0	0
65.01	1.44532	1.27688	-0.618338	-0.320233	1.55628	0.930301	-0.109737	0.293023	-0.229579	0.128044	-0.443061	0	0	-0.0630074	-0.578846	-0.2269	1.22125	-0.539518	0	0	-0.20295	0.394631	-0.127014	-0.125933	-0.378771	0.0215993	0.835483	1.5708	0	0	0.198389	-0.159755	0.586998	0.396178	1.5708	0	0
65.02	1.46176	1.27826	-0.645799	-0.312068	1.56069	0.931814	-0.130397	0.291844	-0.219974	0.120388	-0.442452	0	0	-0.036187	-0.572895	-0.215981	1.25014	-0.510704	0	0	-0.211272	0.385908	-0.117191	-0.119228	-0.375453	0.0223367	0.835325	1.5708	0	0	0.19654	-0.162851	0.584052	0.396581	1.5708	0	0
65.03	1.49557	1.2856	-0.686944	-0.305016	1.56413	0.934069	-0.146472	0.282009	-0.208231	0.116386	-0.440899	0	0	-0.0101852	-0.5005	-0.112528	1.25784	-0.430303	0	0	-0.221812	0.368051	-0.113949	-0.100209	-0.367918	0.0298552	0.821959	1.5708	0	0	0.196876	-0.167871	0.575382	0.394772	1.5708	0	0
65.04	1.49883	1.28154	-0.70514	-0.295665	1.56958	0.934646	-0.170935	0.286705	-0.197168	0.106245	-0.43886	0	0	0.0114199	-0.556781	-0.201052	1.28779	-0.447733	0	0	-0.226422	0.366314	-0.100778	-0.103382	-0.367566	0.0242002	0.833022	1.5708	0	0	0.190235	-0.170694	0.574106	0.398963	1.5708	0	0
65.05	1.51705	1.28287	-0.735403	-0.287434	1.57407	0.935936	-0.189923	0.28308	-0.183728	0.101768	-0.43678	0	0	0.0324927	-0.550659	-0.201268	1.2974	-0.443548	0	0	-0.233522	0.356684	-0.0912957	-0.0979857	-0.363715	0.0221989	0.834782	1.5708	0	0	0.187899	-0.174372	0.572769	0.398678	1.5708	0	0
65.06	1.53827	1.28397	-0.768914	-0.279267	1.5786	0.937179	-0.208675	0.278037	-0.172689	0.0983586	-0.433644	0	0	0.0507224	-0.544094	-0.205278	1.30147	-0.432489	0	0	-0.241112	0.34643	-0.0825734	-0.0919366	-0.359751	0.0209685	0.836445	1.5708	0	0	0.184503	-0.178141	0.568288	0.399585	1.5708	0	0
65.07	1.56135	1.28443	-0.804572	-0.271227	1.58309	0.938368	-0.226119	0.271977	-0.162068	0.0986561	-0.429962	0	0	0.066355	-0.537904	-0.213882	1.30066	-0.418403	0	0	-0.249495	0.336194	-0.0741007	-0.0853264	-0.356195	0.0211507	0.838646	1.5708	0	0	0.180899	-0.181907	0.562416	0.40082	1.5708	0	0
65.08	1.58492	1.2844	-0.840859	-0.263264	1.58759	0.939457	-0.243016	0.265314	-0.15281	0.100692	-0.42611	0	0	0.0801032	-0.532009	-0.226719	1.29575	-0.403244	0	0	-0.258125	0.325996	-0.0659303	-0.0788035	-0.353083	0.0226567	0.841392	1.5708	0	0	0.177275	-0.185666	0.556	0.401979	1.5708	0	0
65.09	1.60882	1.28401	-0.877672	-0.255416	1.5921	0.940426	-0.259503	0.258163	-0.146037	0.103159	-0.421496	0	0	0.092038	-0.525894	-0.243791	1.2869	-0.388338	0	0	-0.267033	0.31595	-0.0581262	-0.0721988	-0.35061	0.0252323	0.845238	1.5708	0	0	0.17362	-0.18936	0.54922	0.403226	1.5708	0	0
65.1	1.63288	1.28312	-0.914598	-0.247727	1.59664	0.941287	-0.275825	0.250777	-0.142037	0.106102	-0.416036	0	0	0.102358	-0.518451	-0.263717	1.27346	-0.373267	0	0	-0.276417	0.306243	-0.050544	-0.0654875	-0.34865	0.0282216	0.850338	1.5708	0	0	0.170181	-0.192817	0.542197	0.404304	1.5708	0	0
65.11	1.66953	1.28407	-0.961454	-0.240994	1.60043	0.942553	-0.289002	0.239117	-0.138514	0.112792	-0.406747	0	0	0.111618	-0.471859	-0.23049	1.23904	-0.329737	0	0	-0.288901	0.291775	-0.0471051	-0.0511698	-0.344796	0.0364031	0.849157	1.5708	0	0	0.168878	-0.197323	0.530301	0.404709	1.5708	0	0
65.12	1.68582	1.28255	-0.98635	-0.233708	1.60524	0.942968	-0.303803	0.234034	-0.138478	0.115041	-0.404262	0	0	0.123559	-0.466432	-0.246838	1.21436	-0.319894	0	0	-0.296104	0.285072	-0.0424891	-0.0459454	-0.343565	0.0390224	0.855746	1.5708	0	0	0.167498	-0.200121	0.527874	0.403477	1.5708	0	0
65.13	1.7033	1.28031	-1.01196	-0.226555	1.60994	0.94333	-0.319499	0.229105	-0.138546	0.116263	-0.400687	0	0	0.132279	-0.46015	-0.262309	1.18194	-0.310417	0	0	-0.304582	0.27824	-0.0381526	-0.0409057	-0.342042	0.0411103	0.863277	1.5708	0	0	0.166496	-0.203048	0.524715	0.402473	1.5708	0	0
65.14	1.72555	1.27774	-1.04475	-0.219437	1.61451	0.943779	-0.33572	0.221592	-0.137985	0.118319	-0.394641	0	0	0.13422	-0.451084	-0.281244	1.13923	-0.301505	0	0	-0.315112	0.269711	-0.0318472	-0.0358961	-0.340758	0.0430291	0.871661	1.5708	0	0	0.165948	-0.20528	0.519821	0.400347	1.5708	0	0
65.15	1.73607	1.27435	-1.05599	-0.213135	1.61926	0.943729	-0.349804	0.220573	-0.145144	0.118906	-0.391408	0	0	0.145607	-0.442539	-0.281873	1.09715	-0.298122	0	0	-0.323195	0.266827	-0.0328941	-0.0305726	-0.339144	0.0443199	0.879857	1.5708	0	0	0.167779	-0.208214	0.518213	0.398154	1.5708	0	0
65.16	1.7501	1.27043	-1.07431	-0.206573	1.6241	0.943806	-0.365333	0.217087	-0.153953	0.120342	-0.386913	0	0	0.147425	-0.431674	-0.287884	1.04204	-0.299602	0	0	-0.332796	0.262634	-0.0317879	-0.0249135	-0.33847	0.047254	0.888427	1.5708	0	0	0.168619	-0.21038	0.515184	0.395428	1.5708	0	0
65.17	1.74701	1.27103	-1.08857	-0.198963	1.62916	0.943534	-0.375091	0.210757	-0.145613	0.124451	-0.382656	0	0	0.144249	-0.426328	-0.31435	0.981213	-0.30363	0	0	-0.336046	0.258596	-0.0191173	-0.0220265	-0.341598	0.0521309	0.895589	1.5708	0	0	0.167313	-0.208076	0.512144	0.38814	1.5708	0	0
65.18	1.74835	1.27061	-1.09785	-0.191971	1.63419	0.943079	-0.386879	0.207418	-0.141263	0.124774	-0.37764	0	0	0.144622	-0.417448	-0.326664	0.916647	-0.313207	0	0	-0.339738	0.255272	-0.0141714	-0.0181712	-0.343098	0.0573691	0.901105	1.5708	0	0	0.167954	-0.207753	0.509685	0.381654	1.5708	0	0
65.19	1.74514	1.26876	-1.08932	-0.185734	1.63954	0.942169	-0.399008	0.211552	-0.149767	0.121779	-0.373479	0	0	0.152289	-0.406662	-0.31752	0.851407	-0.323612	0	0	-0.341899	0.256829	-0.0211528	-0.0136788	-0.342492	0.0617468	0.906088	1.5708	0	0	0.169197	-0.210637	0.509485	0.378582	1.5708	0	0
65.2	1.73647	1.27032	-1.08722	-0.178614	1.64506	0.941141	-0.407646	0.20991	-0.146009	0.123103	-0.368601	0	0	0.151465	-0.39776	-0.328415	0.780145	-0.333565	0	0	-0.340736	0.256152	-0.0188271	-0.00998136	-0.344069	0.0674797	0.90977	1.5708	0	0	0.167866	-0.21063	0.508083	0.373226	1.5708	0	0
65.21	1.73249	1.27273	-1.09028	-0.171642	1.65081	0.940127	-0.415589	0.205477	-0.142581	0.125628	-0.362558	0	0	0.147216	-0.385773	-0.340654	0.705075	-0.343717	0	0	-0.339592	0.25409	-0.0164321	-0.00617851	-0.346412	0.0738924	0.912626	1.5708	0	0	0.166768	-0.209778	0.505699	0.367082	1.5708	0	0
65.22	1.70865	1.27766	-1.08341	-0.163633	1.65654	0.938605	-0.419169	0.201485	-0.128004	0.128989	-0.355895	0	0	0.140713	-0.381717	-0.367568	0.630159	-0.351247	0	0	-0.333413	0.254393	-0.00485713	-0.00532336	-0.351262	0.0805269	0.916087	1.5708	0	0	0.162794	-0.206231	0.500671	0.360079	1.5708	0	0
65.23	1.6905	1.28101	-1.0698	-0.15671	1.66258	0.936939	-0.423758	0.201421	-0.126198	0.131217	-0.34686	0	0	0.138628	-0.372304	-0.370615	0.554058	-0.362139	0	0	-0.32835	0.256764	-0.00450465	-0.00227247	-0.354948	0.0882323	0.918426	1.5708	0	0	0.160648	-0.204473	0.494501	0.35481	1.5708	0	0
65.24	1.67304	1.28454	-1.05174	-0.150142	1.66928	0.935109	-0.427136	0.201828	-0.131014	0.13654	-0.339402	0	0	0.13787	-0.360769	-0.362988	0.477752	-0.369727	0	0	-0.321832	0.260568	-0.00948252	0.000268685	-0.358088	0.0942005	0.919894	1.5708	0	0	0.158298	-0.203327	0.491168	0.350547	1.5708	0	0
65.25	1.639	1.28873	-1.01721	-0.143669	1.67533	0.932812	-0.42606	0.207114	-0.128397	0.142954	-0.330625	0	0	0.141472	-0.354009	-0.344352	0.40393	-0.376183	0	0	-0.313311	0.267371	-0.013665	0.00321125	-0.360292	0.0991915	0.92054	1.5708	0	0	0.156628	-0.203545	0.49001	0.34773	1.5708	0	0
65.26	1.6065	1.29265	-0.984421	-0.137233	1.6818	0.930581	-0.424377	0.210525	-0.129697	0.151445	-0.320967	0	0	0.141298	-0.346909	-0.320027	0.330202	-0.390631	0	0	-0.30479	0.274123	-0.0180122	0.00590496	-0.363449	0.104413	0.92064	1.5708	0	0	0.154748	-0.203046	0.489642	0.344651	1.5708	0	0
65.27	1.57689	1.29623	-0.955246	-0.130835	1.68851	0.928369	-0.422557	0.212018	-0.132983	0.162117	-0.311384	0	0	0.137515	-0.337338	-0.296704	0.253603	-0.391662	0	0	-0.296948	0.280337	-0.0216209	0.00775587	-0.367017	0.108287	0.921179	1.5708	0	0	0.153	-0.202135	0.489804	0.341684	1.5708	0	0
65.28	1.55249	1.29879	-0.93191	-0.124348	1.69523	0.926352	-0.422089	0.212268	-0.135747	0.174061	-0.301163	0	0	0.129426	-0.328281	-0.269152	0.181033	-0.398406	0	0	-0.291014	0.28538	-0.0246454	0.00950536	-0.370275	0.111733	0.920982	1.5708	0	0	0.151411	-0.201599	0.490077	0.339149	1.5708	0	0
65.29	1.53375	1.30089	-0.915776	-0.117736	1.70186	0.92455	-0.422147	0.210618	-0.137056	0.188027	-0.291261	0	0	0.119203	-0.319719	-0.242356	0.115903	-0.404658	0	0	-0.286924	0.288582	-0.0260296	0.0109834	-0.373155	0.114767	0.919677	1.5708	0	0	0.150171	-0.201588	0.492489	0.336968	1.5708	0	0
65.3	1.52095	1.3026	-0.907066	-0.110959	1.7084	0.922965	-0.423218	0.206671	-0.136093	0.203275	-0.281908	0	0	0.108173	-0.311876	-0.217313	0.0616961	-0.410043	0	0	-0.284553	0.289826	-0.0257798	0.0122056	-0.375358	0.116978	0.91712	1.5708	0	0	0.149093	-0.202318	0.497556	0.335532	1.5708	0	0
65.31	1.50426	1.31153	-0.906845	-0.104695	1.71404	0.920871	-0.433024	0.175782	-0.0154426	0.200028	-0.266454	0	0	0.104825	-0.302037	-0.206335	0.0259729	-0.41301	0	0	-0.280913	0.285573	-0.0144144	0.0147898	-0.379757	0.119167	0.916051	1.5708	0	0	0.149647	-0.201068	0.500373	0.333292	1.5708	0	0
65.32	1.50257	1.31063	-0.91131	-0.0975553	1.72046	0.91986	-0.438268	0.171368	-0.0125733	0.21373	-0.261123	0	0	0.0972986	-0.297565	-0.196838	0.0100361	-0.413826	0	0	-0.283281	0.284954	-0.0113792	0.0146579	-0.381316	0.119382	0.913641	1.5708	0	0	0.149419	-0.202119	0.503209	0.331778	1.5708	0	0
65.33	1.50796	1.30932	-0.923626	-0.0902576	1.72689	0.919101	-0.444829	0.165102	-0.00934005	0.227513	-0.257652	0	0	0.0906222	-0.291972	-0.192707	0.00913415	-0.416368	0	0	-0.287107	0.282412	-0.00774253	0.0138728	-0.382216	0.118889	0.910187	1.5708	0	0	0.14935	-0.203665	0.506142	0.33036	1.5708	0	0
